<svg xmlns="http://www.w3.org/2000/svg" width="1280" height="420" viewBox="0 0 1280 420" role="img" aria-label="泽PPT备份助手">
  <defs>
    <linearGradient id="bg" x1="0" y1="0" x2="1" y2="1">
      <stop offset="0" stop-color="#0f172a"/>
      <stop offset="0.48" stop-color="#14532d"/>
      <stop offset="1" stop-color="#1e3a8a"/>
    </linearGradient>
    <linearGradient id="card" x1="0" y1="0" x2="1" y2="1">
      <stop offset="0" stop-color="#ffffff" stop-opacity="0.18"/>
      <stop offset="1" stop-color="#ffffff" stop-opacity="0.08"/>
    </linearGradient>
    <filter id="shadow" x="-20%" y="-20%" width="140%" height="140%">
      <feDropShadow dx="0" dy="18" stdDeviation="22" flood-color="#020617" flood-opacity="0.35"/>
    </filter>
  </defs>

  <rect width="1280" height="420" rx="34" fill="url(#bg)"/>
  <circle cx="1070" cy="70" r="150" fill="#22c55e" opacity="0.16"/>
  <circle cx="1160" cy="310" r="110" fill="#38bdf8" opacity="0.14"/>
  <circle cx="110" cy="330" r="130" fill="#f59e0b" opacity="0.12"/>

  <g filter="url(#shadow)">
    <rect x="80" y="72" width="1120" height="276" rx="24" fill="url(#card)" stroke="#ffffff" stroke-opacity="0.18"/>
  </g>

  <g transform="translate(116 108)">
    <rect x="0" y="0" width="92" height="112" rx="18" fill="#f97316"/>
    <path d="M26 25h33l21 22v40c0 8-6 14-14 14H26c-8 0-14-6-14-14V39c0-8 6-14 14-14z" fill="#fff7ed"/>
    <path d="M59 25v24h21" fill="#fed7aa"/>
    <rect x="28" y="58" width="36" height="7" rx="3.5" fill="#ea580c"/>
    <rect x="28" y="75" width="28" height="7" rx="3.5" fill="#ea580c" opacity="0.72"/>
  </g>

  <text x="240" y="145" fill="#ffffff" font-family="Microsoft YaHei, Segoe UI, Arial, sans-serif" font-size="56" font-weight="700">泽PPT备份助手</text>
  <text x="244" y="190" fill="#dbeafe" font-family="Segoe UI, Microsoft YaHei, Arial, sans-serif" font-size="24" font-weight="500">Ze PPT Backup Assistant v5.0</text>
  <text x="244" y="242" fill="#f8fafc" font-family="Microsoft YaHei, Segoe UI, Arial, sans-serif" font-size="28" font-weight="600">PPT / Word / PDF 本地自动备份工具</text>
  <text x="244" y="286" fill="#cbd5e1" font-family="Microsoft YaHei, Segoe UI, Arial, sans-serif" font-size="21">适合教室、会议室、培训电脑和公共演示环境</text>

  <g transform="translate(830 128)">
    <rect x="0" y="0" width="275" height="52" rx="15" fill="#ffffff" fill-opacity="0.13" stroke="#ffffff" stroke-opacity="0.18"/>
    <text x="26" y="34" fill="#ffffff" font-family="Microsoft YaHei, Segoe UI, Arial, sans-serif" font-size="20" font-weight="600">后台静默运行</text>
    <rect x="0" y="70" width="275" height="52" rx="15" fill="#ffffff" fill-opacity="0.13" stroke="#ffffff" stroke-opacity="0.18"/>
    <text x="26" y="104" fill="#ffffff" font-family="Microsoft YaHei, Segoe UI, Arial, sans-serif" font-size="20" font-weight="600">日期分类保存</text>
    <rect x="0" y="140" width="275" height="52" rx="15" fill="#ffffff" fill-opacity="0.13" stroke="#ffffff" stroke-opacity="0.18"/>
    <text x="26" y="174" fill="#ffffff" font-family="Microsoft YaHei, Segoe UI, Arial, sans-serif" font-size="20" font-weight="600">一键体检售后</text>
  </g>
</svg>
