<svg xmlns="http://www.w3.org/2000/svg" width="1180" height="620" viewBox="0 0 1180 620" role="img" aria-label="泽PPT备份助手产品预览">
  <defs>
    <linearGradient id="bg" x1="0" y1="0" x2="1" y2="1">
      <stop offset="0" stop-color="#f8fafc"/>
      <stop offset="1" stop-color="#eef2ff"/>
    </linearGradient>
    <linearGradient id="app" x1="0" y1="0" x2="1" y2="1">
      <stop offset="0" stop-color="#0f172a"/>
      <stop offset="1" stop-color="#1e293b"/>
    </linearGradient>
    <filter id="shadow" x="-20%" y="-20%" width="140%" height="140%">
      <feDropShadow dx="0" dy="18" stdDeviation="18" flood-color="#0f172a" flood-opacity="0.16"/>
    </filter>
  </defs>

  <rect width="1180" height="620" rx="32" fill="url(#bg)"/>
  <circle cx="1080" cy="78" r="120" fill="#22c55e" opacity="0.10"/>
  <circle cx="96" cy="534" r="150" fill="#2563eb" opacity="0.09"/>

  <g transform="translate(70 64)" filter="url(#shadow)">
    <rect width="680" height="444" rx="22" fill="url(#app)"/>
    <rect width="680" height="54" rx="22" fill="#111827"/>
    <circle cx="30" cy="27" r="7" fill="#ef4444"/>
    <circle cx="54" cy="27" r="7" fill="#f59e0b"/>
    <circle cx="78" cy="27" r="7" fill="#22c55e"/>
    <text x="114" y="35" fill="#e5e7eb" font-family="Microsoft YaHei, Segoe UI, Arial, sans-serif" font-size="18" font-weight="700">泽PPT备份助手</text>

    <g transform="translate(28 82)">
      <rect width="624" height="54" rx="14" fill="#1f2937"/>
      <text x="22" y="34" fill="#d1fae5" font-family="Microsoft YaHei, Segoe UI, Arial, sans-serif" font-size="17" font-weight="700">运行中</text>
      <text x="92" y="34" fill="#cbd5e1" font-family="Microsoft YaHei, Segoe UI, Arial, sans-serif" font-size="15">最近扫描 14:32 · 今日备份 6 个 · 空间保护 10GB</text>
    </g>

    <g transform="translate(28 158)" font-family="Microsoft YaHei, Segoe UI, Arial, sans-serif">
      <rect width="624" height="42" rx="10" fill="#334155"/>
      <text x="20" y="27" fill="#e5e7eb" font-size="15" font-weight="700">时间</text>
      <text x="145" y="27" fill="#e5e7eb" font-size="15" font-weight="700">类型</text>
      <text x="238" y="27" fill="#e5e7eb" font-size="15" font-weight="700">文件</text>
      <text x="512" y="27" fill="#e5e7eb" font-size="15" font-weight="700">大小</text>

      <g font-size="14">
        <rect y="52" width="624" height="46" rx="8" fill="#f8fafc" opacity="0.08"/>
        <text x="20" y="81" fill="#dbeafe">14:32:18</text>
        <text x="145" y="81" fill="#bbf7d0">PPT</text>
        <text x="238" y="81" fill="#f8fafc">数学公开课.pptx</text>
        <text x="512" y="81" fill="#e2e8f0">4.8 MB</text>

        <rect y="108" width="624" height="46" rx="8" fill="#f8fafc" opacity="0.05"/>
        <text x="20" y="137" fill="#dbeafe">14:28:03</text>
        <text x="145" y="137" fill="#bfdbfe">Word</text>
        <text x="238" y="137" fill="#f8fafc">课堂讲义.docx</text>
        <text x="512" y="137" fill="#e2e8f0">38 KB</text>

        <rect y="164" width="624" height="46" rx="8" fill="#f8fafc" opacity="0.08"/>
        <text x="20" y="193" fill="#dbeafe">14:20:41</text>
        <text x="145" y="193" fill="#fecaca">PDF</text>
        <text x="238" y="193" fill="#f8fafc">练习题答案.pdf</text>
        <text x="512" y="193" fill="#e2e8f0">256 KB</text>
      </g>
    </g>

    <g transform="translate(28 398)" font-family="Microsoft YaHei, Segoe UI, Arial, sans-serif" font-size="14" font-weight="700">
      <rect width="94" height="30" rx="15" fill="#2563eb"/>
      <text x="47" y="20" fill="#ffffff" text-anchor="middle">一键体检</text>
      <rect x="108" width="112" height="30" rx="15" fill="#16a34a"/>
      <text x="164" y="20" fill="#ffffff" text-anchor="middle">打开当前备份</text>
      <rect x="234" width="94" height="30" rx="15" fill="#f59e0b"/>
      <text x="281" y="20" fill="#111827" text-anchor="middle">备份格式</text>
      <rect x="342" width="94" height="30" rx="15" fill="#7c3aed"/>
      <text x="389" y="20" fill="#ffffff" text-anchor="middle">空间保护</text>
    </g>
  </g>

  <g transform="translate(790 88)" filter="url(#shadow)" font-family="Microsoft YaHei, Segoe UI, Arial, sans-serif">
    <rect width="318" height="150" rx="22" fill="#ffffff"/>
    <text x="28" y="42" fill="#0f172a" font-size="21" font-weight="800">备份目录</text>
    <text x="28" y="76" fill="#475569" font-size="15">D:\泽宁PPPPPPPPTTTT备份\</text>
    <rect x="28" y="96" width="262" height="34" rx="10" fill="#eff6ff"/>
    <text x="46" y="118" fill="#1d4ed8" font-size="15" font-weight="700">2026-04-19</text>

    <rect y="188" width="318" height="150" rx="22" fill="#ffffff"/>
    <text x="28" y="230" fill="#0f172a" font-size="21" font-weight="800">自动规则</text>
    <text x="28" y="264" fill="#475569" font-size="15">日期分类 · 重名编号 · 哈希去重</text>
    <text x="28" y="296" fill="#16a34a" font-size="16" font-weight="800">不覆盖源文件，不删除原文件</text>

    <rect y="376" width="318" height="96" rx="22" fill="#0f766e"/>
    <text x="28" y="416" fill="#ffffff" font-size="21" font-weight="800">售后更省心</text>
    <text x="28" y="448" fill="#ccfbf1" font-size="15">一键体检复制环境信息</text>
  </g>
</svg>
